<svg width="250" height="350" xmlns="http://www.w3.org/2000/svg">
 <!-- Created with Method Draw - http://github.com/duopixel/Method-Draw/ -->
 <g>
  <title>background</title>
  <rect fill="#ffffff" id="canvas_background" height="352" width="252" y="-1" x="-1"/>
  <g display="none" overflow="visible" y="0" x="0" height="100%" width="100%" id="canvasGrid">
   <rect fill="url(#gridpattern)" stroke-width="0" y="0" x="0" height="100%" width="100%"/>
  </g>
 </g>
 <g>
  <title>Layer 1</title>
  <ellipse ry="63.5" rx="63.5" id="svg_1" cy="178.953125" cx="122" stroke-width="3" stroke="#000" fill="#fff"/>
  <line stroke="#000" stroke-linecap="undefined" stroke-linejoin="undefined" id="svg_2" y2="243.453125" x2="122.5" y1="349.453136" x1="122.5" stroke-width="3" fill="none"/>
  <line stroke="#000" stroke-linecap="undefined" stroke-linejoin="undefined" id="svg_3" y2="270.453125" x2="173.511102" y1="270.453125" x1="75.499999" fill-opacity="null" stroke-opacity="null" stroke-width="3" fill="none"/>
  <line stroke="#000" stroke-linecap="undefined" stroke-linejoin="undefined" id="svg_4" y2="270.453125" x2="74.5" y1="77.45313" x1="10.5" fill-opacity="null" stroke-opacity="null" stroke-width="3" fill="none"/>
  <line stroke="#000" stroke-linecap="undefined" stroke-linejoin="undefined" id="svg_5" y2="270.453125" x2="174.500001" y1="68.45313" x1="234.5" fill-opacity="null" stroke-opacity="null" stroke-width="3" fill="none"/>
  <ellipse stroke="#000" ry="7" rx="10" id="svg_6" cy="156.453125" cx="98.5" fill-opacity="null" stroke-opacity="null" stroke-width="3" fill="none"/>
  <ellipse stroke="#000" ry="6.5" rx="10" id="svg_8" cy="155.953125" cx="145.597721" fill-opacity="null" stroke-opacity="null" stroke-width="3" fill="none"/>
  <line stroke="#000" stroke-linecap="null" stroke-linejoin="null" id="svg_9" y2="187.453125" x2="149.500003" y1="187.453125" x1="91.500002" fill-opacity="null" stroke-opacity="null" stroke-width="3" fill="none"/>
  <path stroke="#000" d="m92.433873,189.141289c0,1.792109 -0.233904,2.75637 0,3.584218c0.330793,1.170753 0.611222,1.792109 0.611222,3.584218c0,0.896054 0,0.896054 0.611222,1.792109c0,0 0,0 0,0.896054c0,0 0.046525,0.55315 0.611222,0.896054c0.798601,0.484944 0.891652,1.517411 1.222445,2.688163c0.233904,0.827848 0.891652,0.621356 1.222445,1.792109c0.233904,0.827848 0.377318,0.964261 0.611222,1.792109c0.330793,1.170753 2.164483,4.049001 4.889779,7.168436c2.809169,3.215438 3.056112,3.584218 3.056112,3.584218c0,0 0.611222,0.896054 2.444889,2.688163c1.833667,1.792109 3.352746,3.450834 6.112224,5.376327c2.275525,1.587804 3.056112,1.792109 3.056112,1.792109c1.222445,0.896054 2.012689,0.262448 2.444889,0.896054c0.4322,0.633607 1.222445,0.896054 1.833667,0.896054c0.611222,0 1.114714,0.435715 2.444889,0.896054c0.594873,0.20587 1.222445,0 1.833667,0c0.611222,0 1.222445,0 1.833667,0c1.222445,0 1.148215,-0.442168 3.056112,-0.896054c1.206664,-0.287065 2.491419,-0.55315 3.056112,-0.896054c0.798601,-0.484944 1.246806,-0.827937 2.444889,-1.792109c3.124233,-2.514247 4.278556,-3.584218 4.278556,-3.584218c0.611222,0 0.423843,-1.307165 1.222445,-1.792109c0.564692,-0.342905 0.790245,-0.262448 1.222445,-0.896054c0.4322,-0.633607 0.423302,-1.958779 1.222445,-3.584218c0.505422,-1.028017 3.144303,-8.901533 3.667334,-10.752653c0.739667,-2.617879 0.941586,-4.528216 1.222445,-6.272381c0.314014,-1.950042 0.790245,-2.054556 1.222445,-2.688163c0.4322,-0.633607 0,-1.792109 0.611222,-2.688163c0,0 0,0 0,-0.896054c0,0 0,0 0,0c0,-0.896054 0,-1.792109 0,-1.792109c0,0 0,-0.896054 0,-0.896054c0,0 0,-0.896054 0,-0.896054c0,-0.896054 0,-0.896054 0,-0.896054c0,-0.896054 0,-0.896054 0,-0.896054l0,0l0,-0.896054l0,0" id="svg_11" fill-opacity="null" stroke-opacity="null" stroke-width="3" fill="none"/>
 </g>
</svg>